<mxfile host="app.diagrams.net" modified="2022-04-25T06:17:23.528Z" agent="5.0 (Windows NT 10.0; Win64; x64) AppleWebKit/537.36 (KHTML, like Gecko) Chrome/100.0.4896.127 Safari/537.36" etag="-EVSiegMy93iydbi8fJm" version="17.4.6" type="github">
  <diagram id="R2lEEEUBdFMjLlhIrx00" name="Page-1">
    <mxGraphModel dx="1038" dy="528" grid="1" gridSize="10" guides="1" tooltips="1" connect="1" arrows="1" fold="1" page="1" pageScale="1" pageWidth="850" pageHeight="1100" math="0" shadow="0" extFonts="Permanent Marker^https://fonts.googleapis.com/css?family=Permanent+Marker">
      <root>
        <mxCell id="0" />
        <mxCell id="1" parent="0" />
        <mxCell id="oZAaq_pUthEeCmEieVrW-2" value="&lt;b&gt;&lt;font style=&quot;font-size: 14px&quot;&gt;Doctor&lt;/font&gt;&lt;/b&gt;" style="rounded=0;whiteSpace=wrap;html=1;strokeColor=#BD1128;" vertex="1" parent="1">
          <mxGeometry x="200" y="160" width="120" height="40" as="geometry" />
        </mxCell>
        <mxCell id="oZAaq_pUthEeCmEieVrW-3" value="&lt;b&gt;Medecine&lt;/b&gt;" style="rounded=0;whiteSpace=wrap;html=1;fontSize=14;strokeColor=#BD1128;" vertex="1" parent="1">
          <mxGeometry x="480" y="720" width="120" height="40" as="geometry" />
        </mxCell>
        <mxCell id="oZAaq_pUthEeCmEieVrW-4" value="&lt;b&gt;Room&lt;/b&gt;" style="rounded=0;whiteSpace=wrap;html=1;fontSize=14;strokeColor=#BD1128;" vertex="1" parent="1">
          <mxGeometry x="520" y="320" width="120" height="40" as="geometry" />
        </mxCell>
        <mxCell id="oZAaq_pUthEeCmEieVrW-5" value="&lt;b&gt;Patient&lt;/b&gt;" style="rounded=0;whiteSpace=wrap;html=1;fontSize=14;strokeColor=#BD1128;" vertex="1" parent="1">
          <mxGeometry x="160" y="520" width="120" height="40" as="geometry" />
        </mxCell>
        <mxCell id="oZAaq_pUthEeCmEieVrW-8" style="edgeStyle=orthogonalEdgeStyle;rounded=0;orthogonalLoop=1;jettySize=auto;html=1;entryX=0.17;entryY=0.05;entryDx=0;entryDy=0;entryPerimeter=0;fontSize=14;" edge="1" parent="1" source="oZAaq_pUthEeCmEieVrW-6" target="oZAaq_pUthEeCmEieVrW-2">
          <mxGeometry relative="1" as="geometry" />
        </mxCell>
        <mxCell id="oZAaq_pUthEeCmEieVrW-6" value="Sex" style="ellipse;whiteSpace=wrap;html=1;fontSize=14;strokeColor=#BD1128;" vertex="1" parent="1">
          <mxGeometry x="70" y="50" width="120" height="50" as="geometry" />
        </mxCell>
        <mxCell id="oZAaq_pUthEeCmEieVrW-16" style="edgeStyle=orthogonalEdgeStyle;rounded=0;orthogonalLoop=1;jettySize=auto;html=1;exitX=1;exitY=1;exitDx=0;exitDy=0;entryX=0;entryY=0.5;entryDx=0;entryDy=0;fontSize=14;" edge="1" parent="1" source="oZAaq_pUthEeCmEieVrW-9" target="oZAaq_pUthEeCmEieVrW-2">
          <mxGeometry relative="1" as="geometry" />
        </mxCell>
        <mxCell id="oZAaq_pUthEeCmEieVrW-9" value="Qualifications" style="ellipse;whiteSpace=wrap;html=1;fontSize=14;strokeColor=#BD1128;" vertex="1" parent="1">
          <mxGeometry x="30" y="160" width="120" height="50" as="geometry" />
        </mxCell>
        <mxCell id="oZAaq_pUthEeCmEieVrW-18" style="edgeStyle=orthogonalEdgeStyle;rounded=0;orthogonalLoop=1;jettySize=auto;html=1;exitX=0;exitY=0;exitDx=0;exitDy=0;entryX=1;entryY=0.5;entryDx=0;entryDy=0;fontSize=14;" edge="1" parent="1" source="oZAaq_pUthEeCmEieVrW-10" target="oZAaq_pUthEeCmEieVrW-2">
          <mxGeometry relative="1" as="geometry" />
        </mxCell>
        <mxCell id="oZAaq_pUthEeCmEieVrW-10" value="idNumber" style="ellipse;whiteSpace=wrap;html=1;fontSize=14;strokeColor=#BD1128;" vertex="1" parent="1">
          <mxGeometry x="370" y="180" width="120" height="50" as="geometry" />
        </mxCell>
        <mxCell id="oZAaq_pUthEeCmEieVrW-17" style="edgeStyle=orthogonalEdgeStyle;rounded=0;orthogonalLoop=1;jettySize=auto;html=1;exitX=1;exitY=0;exitDx=0;exitDy=0;entryX=0.657;entryY=1.05;entryDx=0;entryDy=0;entryPerimeter=0;fontSize=14;" edge="1" parent="1" source="oZAaq_pUthEeCmEieVrW-12" target="oZAaq_pUthEeCmEieVrW-2">
          <mxGeometry relative="1" as="geometry" />
        </mxCell>
        <mxCell id="oZAaq_pUthEeCmEieVrW-12" value="Address" style="ellipse;whiteSpace=wrap;html=1;fontSize=14;strokeColor=#BD1128;" vertex="1" parent="1">
          <mxGeometry x="160" y="240" width="120" height="50" as="geometry" />
        </mxCell>
        <mxCell id="oZAaq_pUthEeCmEieVrW-20" style="edgeStyle=orthogonalEdgeStyle;rounded=0;orthogonalLoop=1;jettySize=auto;html=1;exitX=0.5;exitY=1;exitDx=0;exitDy=0;entryX=0.663;entryY=0.01;entryDx=0;entryDy=0;entryPerimeter=0;fontSize=14;" edge="1" parent="1" source="oZAaq_pUthEeCmEieVrW-13" target="oZAaq_pUthEeCmEieVrW-2">
          <mxGeometry relative="1" as="geometry" />
        </mxCell>
        <mxCell id="oZAaq_pUthEeCmEieVrW-13" value="Name" style="ellipse;whiteSpace=wrap;html=1;fontSize=14;strokeColor=#BD1128;" vertex="1" parent="1">
          <mxGeometry x="230" y="30" width="120" height="50" as="geometry" />
        </mxCell>
        <mxCell id="oZAaq_pUthEeCmEieVrW-19" style="edgeStyle=orthogonalEdgeStyle;rounded=0;orthogonalLoop=1;jettySize=auto;html=1;exitX=0;exitY=0.5;exitDx=0;exitDy=0;entryX=0.903;entryY=0.03;entryDx=0;entryDy=0;entryPerimeter=0;fontSize=14;" edge="1" parent="1" source="oZAaq_pUthEeCmEieVrW-15" target="oZAaq_pUthEeCmEieVrW-2">
          <mxGeometry relative="1" as="geometry" />
        </mxCell>
        <mxCell id="oZAaq_pUthEeCmEieVrW-15" value="Age" style="ellipse;whiteSpace=wrap;html=1;fontSize=14;strokeColor=#BD1128;" vertex="1" parent="1">
          <mxGeometry x="365" y="90" width="120" height="60" as="geometry" />
        </mxCell>
        <mxCell id="oZAaq_pUthEeCmEieVrW-27" style="edgeStyle=orthogonalEdgeStyle;rounded=0;orthogonalLoop=1;jettySize=auto;html=1;exitX=0.5;exitY=1;exitDx=0;exitDy=0;entryX=0.5;entryY=0;entryDx=0;entryDy=0;fontSize=14;" edge="1" parent="1" source="oZAaq_pUthEeCmEieVrW-21" target="oZAaq_pUthEeCmEieVrW-5">
          <mxGeometry relative="1" as="geometry" />
        </mxCell>
        <mxCell id="oZAaq_pUthEeCmEieVrW-21" value="Sex" style="ellipse;whiteSpace=wrap;html=1;fontSize=14;strokeColor=#BD1128;" vertex="1" parent="1">
          <mxGeometry x="150" y="370" width="120" height="50" as="geometry" />
        </mxCell>
        <mxCell id="oZAaq_pUthEeCmEieVrW-28" style="edgeStyle=orthogonalEdgeStyle;rounded=0;orthogonalLoop=1;jettySize=auto;html=1;exitX=0.5;exitY=1;exitDx=0;exitDy=0;entryX=0.25;entryY=0;entryDx=0;entryDy=0;fontSize=14;" edge="1" parent="1" source="oZAaq_pUthEeCmEieVrW-22" target="oZAaq_pUthEeCmEieVrW-5">
          <mxGeometry relative="1" as="geometry" />
        </mxCell>
        <mxCell id="oZAaq_pUthEeCmEieVrW-22" value="Disease" style="ellipse;whiteSpace=wrap;html=1;fontSize=14;strokeColor=#BD1128;" vertex="1" parent="1">
          <mxGeometry x="20" y="430" width="120" height="50" as="geometry" />
        </mxCell>
        <mxCell id="oZAaq_pUthEeCmEieVrW-29" style="edgeStyle=orthogonalEdgeStyle;rounded=0;orthogonalLoop=1;jettySize=auto;html=1;exitX=1;exitY=0.5;exitDx=0;exitDy=0;entryX=0.25;entryY=1;entryDx=0;entryDy=0;fontSize=14;" edge="1" parent="1" source="oZAaq_pUthEeCmEieVrW-23" target="oZAaq_pUthEeCmEieVrW-5">
          <mxGeometry relative="1" as="geometry" />
        </mxCell>
        <mxCell id="oZAaq_pUthEeCmEieVrW-23" value="Address" style="ellipse;whiteSpace=wrap;html=1;fontSize=14;strokeColor=#BD1128;" vertex="1" parent="1">
          <mxGeometry x="30" y="570" width="120" height="50" as="geometry" />
        </mxCell>
        <mxCell id="oZAaq_pUthEeCmEieVrW-30" style="edgeStyle=orthogonalEdgeStyle;rounded=0;orthogonalLoop=1;jettySize=auto;html=1;exitX=0.5;exitY=0;exitDx=0;exitDy=0;entryX=0.5;entryY=1;entryDx=0;entryDy=0;fontSize=14;" edge="1" parent="1" source="oZAaq_pUthEeCmEieVrW-24" target="oZAaq_pUthEeCmEieVrW-5">
          <mxGeometry relative="1" as="geometry" />
        </mxCell>
        <mxCell id="oZAaq_pUthEeCmEieVrW-24" value="PatNumber" style="ellipse;whiteSpace=wrap;html=1;fontSize=14;strokeColor=#BD1128;" vertex="1" parent="1">
          <mxGeometry x="185" y="630" width="120" height="50" as="geometry" />
        </mxCell>
        <mxCell id="oZAaq_pUthEeCmEieVrW-32" style="edgeStyle=orthogonalEdgeStyle;rounded=0;orthogonalLoop=1;jettySize=auto;html=1;exitX=0;exitY=1;exitDx=0;exitDy=0;entryX=0.75;entryY=0;entryDx=0;entryDy=0;fontSize=14;" edge="1" parent="1" source="oZAaq_pUthEeCmEieVrW-25" target="oZAaq_pUthEeCmEieVrW-5">
          <mxGeometry relative="1" as="geometry" />
        </mxCell>
        <mxCell id="oZAaq_pUthEeCmEieVrW-25" value="Age" style="ellipse;whiteSpace=wrap;html=1;fontSize=14;strokeColor=#BD1128;" vertex="1" parent="1">
          <mxGeometry x="280" y="420" width="120" height="50" as="geometry" />
        </mxCell>
        <mxCell id="oZAaq_pUthEeCmEieVrW-31" style="edgeStyle=orthogonalEdgeStyle;rounded=0;orthogonalLoop=1;jettySize=auto;html=1;exitX=0;exitY=0;exitDx=0;exitDy=0;entryX=1;entryY=0.75;entryDx=0;entryDy=0;fontSize=14;" edge="1" parent="1" source="oZAaq_pUthEeCmEieVrW-26" target="oZAaq_pUthEeCmEieVrW-5">
          <mxGeometry relative="1" as="geometry" />
        </mxCell>
        <mxCell id="oZAaq_pUthEeCmEieVrW-26" value="Name" style="ellipse;whiteSpace=wrap;html=1;fontSize=14;strokeColor=#BD1128;" vertex="1" parent="1">
          <mxGeometry x="305" y="525" width="120" height="50" as="geometry" />
        </mxCell>
        <mxCell id="oZAaq_pUthEeCmEieVrW-39" style="edgeStyle=orthogonalEdgeStyle;rounded=0;orthogonalLoop=1;jettySize=auto;html=1;exitX=0;exitY=1;exitDx=0;exitDy=0;entryX=1;entryY=0.5;entryDx=0;entryDy=0;fontSize=14;" edge="1" parent="1" source="oZAaq_pUthEeCmEieVrW-33" target="oZAaq_pUthEeCmEieVrW-4">
          <mxGeometry relative="1" as="geometry" />
        </mxCell>
        <mxCell id="oZAaq_pUthEeCmEieVrW-33" value="Type" style="ellipse;whiteSpace=wrap;html=1;fontSize=14;strokeColor=#BD1128;" vertex="1" parent="1">
          <mxGeometry x="680" y="260" width="120" height="60" as="geometry" />
        </mxCell>
        <mxCell id="oZAaq_pUthEeCmEieVrW-40" style="edgeStyle=orthogonalEdgeStyle;rounded=0;orthogonalLoop=1;jettySize=auto;html=1;exitX=0.5;exitY=1;exitDx=0;exitDy=0;entryX=0.137;entryY=0.01;entryDx=0;entryDy=0;entryPerimeter=0;fontSize=14;" edge="1" parent="1" source="oZAaq_pUthEeCmEieVrW-34" target="oZAaq_pUthEeCmEieVrW-4">
          <mxGeometry relative="1" as="geometry" />
        </mxCell>
        <mxCell id="oZAaq_pUthEeCmEieVrW-34" value="Capacity" style="ellipse;whiteSpace=wrap;html=1;fontSize=14;strokeColor=#BD1128;" vertex="1" parent="1">
          <mxGeometry x="480" y="230" width="120" height="60" as="geometry" />
        </mxCell>
        <mxCell id="oZAaq_pUthEeCmEieVrW-41" style="edgeStyle=orthogonalEdgeStyle;rounded=0;orthogonalLoop=1;jettySize=auto;html=1;exitX=0.5;exitY=0;exitDx=0;exitDy=0;entryX=0.337;entryY=1.03;entryDx=0;entryDy=0;entryPerimeter=0;fontSize=14;" edge="1" parent="1" source="oZAaq_pUthEeCmEieVrW-35" target="oZAaq_pUthEeCmEieVrW-4">
          <mxGeometry relative="1" as="geometry" />
        </mxCell>
        <mxCell id="oZAaq_pUthEeCmEieVrW-35" value="RNumber" style="ellipse;whiteSpace=wrap;html=1;fontSize=14;strokeColor=#BD1128;" vertex="1" parent="1">
          <mxGeometry x="460" y="400" width="120" height="60" as="geometry" />
        </mxCell>
        <mxCell id="oZAaq_pUthEeCmEieVrW-42" style="edgeStyle=orthogonalEdgeStyle;rounded=0;orthogonalLoop=1;jettySize=auto;html=1;exitX=0;exitY=0.5;exitDx=0;exitDy=0;entryX=0.75;entryY=1;entryDx=0;entryDy=0;fontSize=14;" edge="1" parent="1" source="oZAaq_pUthEeCmEieVrW-36" target="oZAaq_pUthEeCmEieVrW-4">
          <mxGeometry relative="1" as="geometry" />
        </mxCell>
        <mxCell id="oZAaq_pUthEeCmEieVrW-36" value="inCharge" style="ellipse;whiteSpace=wrap;html=1;fontSize=14;strokeColor=#BD1128;" vertex="1" parent="1">
          <mxGeometry x="670" y="390" width="120" height="60" as="geometry" />
        </mxCell>
        <mxCell id="oZAaq_pUthEeCmEieVrW-50" style="edgeStyle=orthogonalEdgeStyle;rounded=0;orthogonalLoop=1;jettySize=auto;html=1;exitX=0.5;exitY=0;exitDx=0;exitDy=0;fontSize=14;" edge="1" parent="1" source="oZAaq_pUthEeCmEieVrW-43" target="oZAaq_pUthEeCmEieVrW-3">
          <mxGeometry relative="1" as="geometry" />
        </mxCell>
        <mxCell id="oZAaq_pUthEeCmEieVrW-43" value="Name" style="ellipse;whiteSpace=wrap;html=1;fontSize=14;strokeColor=#BD1128;" vertex="1" parent="1">
          <mxGeometry x="520" y="810" width="120" height="60" as="geometry" />
        </mxCell>
        <mxCell id="oZAaq_pUthEeCmEieVrW-51" style="edgeStyle=orthogonalEdgeStyle;rounded=0;orthogonalLoop=1;jettySize=auto;html=1;exitX=0;exitY=0.5;exitDx=0;exitDy=0;entryX=1;entryY=0.5;entryDx=0;entryDy=0;fontSize=14;" edge="1" parent="1" source="oZAaq_pUthEeCmEieVrW-44" target="oZAaq_pUthEeCmEieVrW-3">
          <mxGeometry relative="1" as="geometry" />
        </mxCell>
        <mxCell id="oZAaq_pUthEeCmEieVrW-44" value="Type" style="ellipse;whiteSpace=wrap;html=1;fontSize=14;strokeColor=#BD1128;" vertex="1" parent="1">
          <mxGeometry x="670" y="730" width="120" height="60" as="geometry" />
        </mxCell>
        <mxCell id="oZAaq_pUthEeCmEieVrW-52" style="edgeStyle=orthogonalEdgeStyle;rounded=0;orthogonalLoop=1;jettySize=auto;html=1;exitX=0;exitY=0.5;exitDx=0;exitDy=0;entryX=0.75;entryY=0;entryDx=0;entryDy=0;fontSize=14;" edge="1" parent="1" source="oZAaq_pUthEeCmEieVrW-45" target="oZAaq_pUthEeCmEieVrW-3">
          <mxGeometry relative="1" as="geometry" />
        </mxCell>
        <mxCell id="oZAaq_pUthEeCmEieVrW-45" value="medCode" style="ellipse;whiteSpace=wrap;html=1;fontSize=14;strokeColor=#BD1128;" vertex="1" parent="1">
          <mxGeometry x="590" y="640" width="120" height="60" as="geometry" />
        </mxCell>
        <mxCell id="oZAaq_pUthEeCmEieVrW-53" style="edgeStyle=orthogonalEdgeStyle;rounded=0;orthogonalLoop=1;jettySize=auto;html=1;exitX=1;exitY=1;exitDx=0;exitDy=0;entryX=0.35;entryY=0.05;entryDx=0;entryDy=0;entryPerimeter=0;fontSize=14;" edge="1" parent="1" source="oZAaq_pUthEeCmEieVrW-46" target="oZAaq_pUthEeCmEieVrW-3">
          <mxGeometry relative="1" as="geometry" />
        </mxCell>
        <mxCell id="oZAaq_pUthEeCmEieVrW-46" value="expiryDate" style="ellipse;whiteSpace=wrap;html=1;fontSize=14;strokeColor=#BD1128;" vertex="1" parent="1">
          <mxGeometry x="410" y="625" width="120" height="60" as="geometry" />
        </mxCell>
        <mxCell id="oZAaq_pUthEeCmEieVrW-49" style="edgeStyle=orthogonalEdgeStyle;rounded=0;orthogonalLoop=1;jettySize=auto;html=1;exitX=1;exitY=0.5;exitDx=0;exitDy=0;entryX=0;entryY=0.5;entryDx=0;entryDy=0;fontSize=14;" edge="1" parent="1" source="oZAaq_pUthEeCmEieVrW-47" target="oZAaq_pUthEeCmEieVrW-3">
          <mxGeometry relative="1" as="geometry" />
        </mxCell>
        <mxCell id="oZAaq_pUthEeCmEieVrW-47" value="Price" style="ellipse;whiteSpace=wrap;html=1;fontSize=14;strokeColor=#BD1128;" vertex="1" parent="1">
          <mxGeometry x="320" y="760" width="120" height="60" as="geometry" />
        </mxCell>
      </root>
    </mxGraphModel>
  </diagram>
</mxfile>
